<!-- assets/icons/settings.svg -->
<svg width="24" height="24" viewBox="0 0 24 24" fill="none" xmlns="http://www.w3.org/2000/svg">
  <path d="M10.325 4.317C10.7316 2.9076 13.2684 2.9076 13.675 4.317C13.8625 4.9694 14.4662 5.39727 15.1464 5.39727H16.6C18.0467 5.39727 18.7322 7.28472 17.6 8.183C17.0764 8.59376 17.0764 9.40624 17.6 9.817C18.7322 10.7153 18.0467 12.6027 16.6 12.6027H15.1464C14.4662 12.6027 13.8625 13.0306 13.675 13.683C13.2684 15.0924 10.7316 15.0924 10.325 13.683C10.1375 13.0306 9.53384 12.6027 8.8536 12.6027H7.4C5.95328 12.6027 5.26777 10.7153 6.4 9.817C6.92356 9.40624 6.92356 8.59376 6.4 8.183C5.26777 7.28472 5.95328 5.39727 7.4 5.39727H8.8536C9.53384 5.39727 10.1375 4.9694 10.325 4.317Z" stroke="#4A90E2" stroke-width="2" stroke-linecap="round" stroke-linejoin="round"/>
  <circle cx="12" cy="9" r="3" stroke="#4A90E2" stroke-width="2"/>
</svg>
